<svg height="512pt" viewBox="-21 0 511 512" width="512pt" xmlns="http://www.w3.org/2000/svg"><path d="m305.367188 450.59375h-20.585938c-28.179688 0-51.109375-22.929688-51.109375-51.113281v-12.230469c0-11.230469-9.136719-20.367188-20.367187-20.367188-11.226563 0-20.363282 9.136719-20.363282 20.367188v12.230469c0 28.183593-22.929687 51.113281-51.113281 51.113281h-34.089844c-40.441406 0-73.339843-32.902344-73.339843-73.34375v-116.949219h30.742187v116.949219c0 23.488281 19.109375 42.597656 42.597656 42.597656h34.089844c11.230469 0 20.367187-9.136718 20.367187-20.367187v-12.230469c0-28.183594 22.929688-51.113281 51.109376-51.113281 28.183593 0 51.113281 22.929687 51.113281 51.113281v12.230469c0 11.230469 9.136719 20.367187 20.363281 20.367187h20.585938zm0 0" fill="#2b75ad"/><path d="m264.417969 399.480469v-12.230469c0-20.949219-12.671875-38.980469-30.746094-46.867188v59.097657c0 28.183593 22.929687 51.113281 51.109375 51.113281h20.585938v-30.746094h-20.585938c-11.226562 0-20.363281-9.136718-20.363281-20.367187zm0 0" fill="#13496b"/><path d="m454.035156 418.8125h-46.324218c-8.492188 0-15.375-6.882812-15.375-15.375 0-8.488281 6.882812-15.371094 15.375-15.371094h46.324218c8.488282 0 15.371094 6.882813 15.371094 15.371094 0 8.492188-6.882812 15.375-15.371094 15.375zm0 0" fill="#80dbff"/><path d="m454.035156 482.375h-46.324218c-8.492188 0-15.375-6.882812-15.375-15.375 0-8.488281 6.882812-15.371094 15.375-15.371094h46.324218c8.488282 0 15.371094 6.882813 15.371094 15.371094 0 8.492188-6.882812 15.375-15.371094 15.375zm0 0" fill="#80dbff"/><path d="m407.707031 512h-40.933593c-42.335938 0-76.777344-34.441406-76.777344-76.78125 0-42.335938 34.441406-76.777344 76.777344-76.777344h40.933593c8.492188 0 15.375 6.882813 15.375 15.371094v122.816406c0 8.488282-6.882812 15.371094-15.375 15.371094zm0 0" fill="#cdebfc"/><path d="m451.472656 275.675781h-435.601562c-8.488282 0-15.371094-6.882812-15.371094-15.375v-27.128906c0-55.871094 41.75-102.175781 95.691406-109.351563 7.234375-69.472656 66.128906-123.820312 137.480469-123.820312s130.25 54.347656 137.480469 123.816406c53.941406 7.175782 95.691406 53.480469 95.691406 109.355469v27.128906c0 8.492188-6.878906 15.375-15.371094 15.375zm0 0" fill="#fc5356"/><path d="m451.472656 275.675781c8.492188 0 15.371094-6.882812 15.371094-15.375v-27.128906c0-55.871094-41.746094-102.179687-95.691406-109.351563-7.230469-69.472656-66.128906-123.820312-137.480469-123.820312v275.675781zm0 0" fill="#f70b57"/><path d="m291.746094 153.367188h-116.144532c-8.492187 0-15.375-6.882813-15.375-15.371094 0-40.5 32.949219-73.445313 73.445313-73.445313s73.445313 32.945313 73.445313 73.445313c0 8.488281-6.882813 15.371094-15.371094 15.371094zm0 0" fill="#ebf6fc"/><path d="m291.746094 153.367188c8.488281 0 15.371094-6.882813 15.371094-15.371094 0-40.5-32.949219-73.445313-73.445313-73.445313v88.816407zm0 0" fill="#cdebfc"/><path d="m126.972656 212.023438c-26.621094 0-48.277344 21.65625-48.277344 48.277343 0 26.621094 21.65625 48.28125 48.277344 48.28125s48.277344-21.660156 48.277344-48.28125c0-26.617187-21.65625-48.277343-48.277344-48.277343zm0 0" fill="#ebf6fc"/><path d="m126.972656 323.609375c-34.90625 0-63.308594-28.398437-63.308594-63.308594 0-34.90625 28.402344-63.308593 63.308594-63.308593 34.910156 0 63.308594 28.402343 63.308594 63.308593 0 34.910157-28.398438 63.308594-63.308594 63.308594zm0-95.871094c-17.957031 0-32.5625 14.605469-32.5625 32.5625s14.605469 32.566407 32.5625 32.566407c17.957032 0 32.566406-14.609376 32.566406-32.566407s-14.609374-32.5625-32.566406-32.5625zm0 0" fill="#2b75ad"/><path d="m340.371094 205.59375c-30.164063 0-54.707032 24.542969-54.707032 54.707031 0 30.167969 24.542969 54.710938 54.707032 54.710938 30.167968 0 54.710937-24.542969 54.710937-54.710938 0-30.164062-24.542969-54.707031-54.710937-54.707031zm0 0" fill="#cdebfc"/><path d="m340.371094 323.609375c-34.90625 0-63.308594-28.398437-63.308594-63.308594 0-34.90625 28.402344-63.308593 63.308594-63.308593 34.910156 0 63.308594 28.402343 63.308594 63.308593 0 34.910157-28.398438 63.308594-63.308594 63.308594zm0-95.871094c-17.957032 0-32.5625 14.605469-32.5625 32.5625s14.605468 32.566407 32.5625 32.566407c17.957031 0 32.566406-14.609376 32.566406-32.566407s-14.609375-32.5625-32.566406-32.5625zm0 0" fill="#13496b"/></svg>