<svg height="512pt" viewBox="-22 0 511 512" width="512pt" xmlns="http://www.w3.org/2000/svg"><path d="m443.789062 418.8125c8.488282 0 15.371094-6.882812 15.371094-15.375 0-8.488281-6.882812-15.371094-15.371094-15.371094h-30.574218v30.746094zm0 0"/><path d="m443.789062 482.375c8.488282 0 15.371094-6.882812 15.371094-15.375 0-8.488281-6.882812-15.371094-15.371094-15.371094h-30.574218v30.746094zm0 0"/><path d="m233.671875 95.296875c-18.128906 0-33.65625 11.355469-39.839844 27.328125h79.679688c-6.183594-15.972656-21.710938-27.328125-39.839844-27.328125zm0 0"/><path d="m309.371094 260.300781c0 17.09375 13.90625 31 31 31s31-13.90625 31-31c0-17.089843-13.90625-31-31-31s-31 13.90625-31 31zm0 0"/><path d="m371.152344 123.816406c-7.230469-69.46875-66.128906-123.816406-137.480469-123.816406s-130.25 54.347656-137.480469 123.820312c-53.941406 7.171876-95.691406 53.480469-95.691406 109.351563v27.128906c0 8.492188 6.882812 15.375 15.371094 15.375h20.574218v101.574219c0 40.441406 32.902344 73.34375 73.34375 73.34375h23.84375c28.179688 0 51.109376-22.929688 51.109376-51.113281v-12.230469c0-11.230469 9.136718-20.367188 20.367187-20.367188 11.226563 0 20.363281 9.136719 20.363281 20.367188v12.230469c0 28.183593 22.929688 51.113281 51.113282 51.113281h4.707031c7.140625 34.992188 38.160156 61.40625 75.234375 61.40625h25.941406v-153.558594h-25.941406c-37.074219 0-68.09375 26.410156-75.234375 61.40625h-4.707031c-11.230469 0-20.367188-9.136718-20.367188-20.367187v-12.230469c0-28.183594-22.929688-51.113281-51.109375-51.113281-28.183594 0-51.113281 22.929687-51.113281 51.113281v12.230469c0 11.230469-9.136719 20.367187-20.363282 20.367187h-23.84375c-23.488281 0-42.597656-19.109375-42.597656-42.597656v-101.484375c-1.28125-4.945313-1.960937-10.125-1.960937-15.464844 0-34.042969 27.695312-61.742187 61.742187-61.742187s61.746094 27.699218 61.746094 61.742187c0 5.304688-.675781 10.457031-1.941406 15.371094h93.789062c-1.265625-4.914063-1.9375-10.066406-1.9375-15.371094 0-34.042969 27.695313-61.742187 61.742188-61.742187s61.746094 27.699218 61.746094 61.742187c0 5.304688-.675782 10.457031-1.941407 15.371094h51.296875c8.488282 0 15.371094-6.882813 15.371094-15.371094v-27.128906c0-55.875-41.75-102.179687-95.691406-109.355469zm-79.40625 29.550782h-116.144532c-8.492187 0-15.375-6.882813-15.375-15.371094 0-40.5 32.949219-73.445313 73.445313-73.445313s73.445313 32.945313 73.445313 73.445313c0 8.488281-6.882813 15.371094-15.371094 15.371094zm0 0"/><path d="m95.972656 260.300781c0 17.09375 13.90625 31 31 31s31-13.90625 31-31c0-17.089843-13.90625-31-31-31s-31 13.90625-31 31zm0 0"/></svg>