<svg height="512pt" viewBox="-21 0 511 512" width="512pt" xmlns="http://www.w3.org/2000/svg"><path d="m175.601562 153.367188h116.144532c8.488281 0 15.371094-6.882813 15.371094-15.371094 0-40.5-32.949219-73.445313-73.445313-73.445313s-73.445313 32.945313-73.445313 73.445313c0 8.488281 6.882813 15.371094 15.375 15.371094zm58.070313-58.070313c18.128906 0 33.65625 11.355469 39.839844 27.328125h-79.679688c6.183594-15.972656 21.710938-27.328125 39.839844-27.328125zm0 0"/><path d="m454.035156 451.628906h-30.953125v-32.816406h30.953125c8.488282 0 15.371094-6.882812 15.371094-15.375 0-8.488281-6.882812-15.371094-15.371094-15.371094h-30.953125v-14.253906c0-8.488281-6.882812-15.371094-15.371093-15.371094h-40.933594c-37.074219 0-68.09375 26.410156-75.234375 61.40625h-6.757813c-11.230468 0-20.367187-9.136718-20.367187-20.367187v-12.230469c0-28.183594-22.925781-51.113281-51.109375-51.113281s-51.109375 22.929687-51.109375 51.113281v12.230469c0 11.230469-9.136719 20.367187-20.367188 20.367187h-34.089843c-23.488282 0-42.597657-19.109375-42.597657-42.597656v-101.574219h2.023438c6.851562 26.632813 31.066406 46.371094 59.808593 46.371094 28.738282 0 52.953126-19.742187 59.800782-46.371094h93.789062c6.847656 26.632813 31.0625 46.371094 59.804688 46.371094 28.742187 0 52.957031-19.738281 59.804687-46.371094h51.296875c8.488282 0 15.371094-6.882812 15.371094-15.375v-27.128906c0-55.871094-41.75-102.179687-95.691406-109.351563-7.230469-69.472656-66.128906-123.820312-137.480469-123.820312s-130.25 54.347656-137.480469 123.820312c-53.941406 7.171876-95.691406 53.480469-95.691406 109.351563v27.128906c0 8.492188 6.882812 15.375 15.371094 15.375h18.527344v101.574219c0 40.441406 32.898437 73.34375 73.339843 73.34375h34.089844c28.183594 0 51.113281-22.929688 51.113281-51.113281v-12.230469c0-11.230469 9.136719-20.367188 20.363282-20.367188 11.230468 0 20.367187 9.136719 20.367187 20.367188v12.230469c0 28.183593 22.929687 51.113281 51.109375 51.113281h6.761719c7.140625 34.992188 38.160156 61.40625 75.230469 61.40625h40.933593c8.492188 0 15.371094-6.882812 15.371094-15.371094v-14.253906h30.957031c8.488282 0 15.371094-6.882812 15.371094-15.375 0-8.488281-6.882812-15.371094-15.371094-15.371094zm-296.0625-191.328125c0 17.09375-13.90625 31-31 31s-31-13.90625-31-31c0-17.089843 13.90625-31 31-31s31 13.90625 31 31zm213.398438 0c0 17.09375-13.90625 31-31 31s-31-13.90625-31-31c0-17.089843 13.90625-31 31-31s31 13.90625 31 31zm-340.125-27.128906c0-43.878906 35.695312-79.574219 79.574218-79.574219 8.488282 0 15.371094-6.882812 15.371094-15.375 0-59.261718 48.214844-107.476562 107.480469-107.476562s107.480469 48.214844 107.480469 107.476562c0 8.492188 6.882812 15.375 15.375 15.375 43.875 0 79.574218 35.695313 79.574218 79.574219v11.757813h-35.925781c-6.847656-26.632813-31.0625-46.371094-59.804687-46.371094-28.742188 0-52.957032 19.738281-59.804688 46.371094h-93.789062c-6.847656-26.632813-31.0625-46.371094-59.804688-46.371094-28.742187 0-52.957031 19.738281-59.804687 46.371094h-35.921875zm361.089844 248.082031h-25.5625c-25.382813 0-46.035157-20.648437-46.035157-46.035156 0-25.382812 20.652344-46.035156 46.035157-46.035156h25.5625zm0 0"/></svg>